<svg width="40" height="40" viewBox="0 0 40 40" fill="none" xmlns="http://www.w3.org/2000/svg">
<g clip-path="url(#clip0_2402_836)">
<path d="M20.4166 40C31.2322 40 40 31.2323 40 20.4167C40 9.60113 31.2322 0.833374 20.4166 0.833374C9.60107 0.833374 0.833313 9.60113 0.833313 20.4167C0.833313 31.2323 9.60107 40 20.4166 40Z" fill="#EFF9FF"/>
<path d="M8.92798 14.643C12.0839 14.643 14.6422 12.0847 14.6422 8.92879C14.6422 5.77285 12.0839 3.21448 8.92798 3.21448C5.77205 3.21448 3.21368 5.77285 3.21368 8.92879C3.21368 12.0847 5.77205 14.643 8.92798 14.643Z" stroke="#0962E8" stroke-linecap="round" stroke-linejoin="round"/>
<path d="M26.0707 31.7858C29.2266 31.7858 31.785 29.2273 31.785 26.0715C31.785 22.9156 29.2266 20.3572 26.0707 20.3572C22.9148 20.3572 20.3564 22.9156 20.3564 26.0715C20.3564 29.2273 22.9148 31.7858 26.0707 31.7858Z" stroke="#0962E8" stroke-linecap="round" stroke-linejoin="round"/>
<path d="M17.5 34.1667C8.29525 34.1667 0.833313 26.7048 0.833313 17.5L6.38883 20.2778" stroke="#0962E8" stroke-linecap="round" stroke-linejoin="round"/>
<path d="M17.5 0.833374C26.7048 0.833374 34.1667 8.29526 34.1667 17.5L28.6111 14.7223" stroke="#0962E8" stroke-linecap="round" stroke-linejoin="round"/>
</g>
<defs>
<clipPath id="clip0_2402_836">
<rect width="40" height="40" fill="white"/>
</clipPath>
</defs>
</svg>
