<svg width="40" height="41" viewBox="0 0 40 41" fill="none" xmlns="http://www.w3.org/2000/svg">
<g clip-path="url(#clip0_2402_854)">
<path d="M20.4166 40.8334C31.2322 40.8334 40 32.0656 40 21.25C40 10.4344 31.2322 1.66669 20.4166 1.66669C9.60107 1.66669 0.833313 10.4344 0.833313 21.25C0.833313 32.0656 9.60107 40.8334 20.4166 40.8334Z" fill="#EFF9FF"/>
<path d="M17.5 12.5C20.7216 12.5 23.3333 9.88831 23.3333 6.66665C23.3333 3.44499 20.7216 0.833313 17.5 0.833313C14.2783 0.833313 11.6666 3.44499 11.6666 6.66665C11.6666 9.88831 14.2783 12.5 17.5 12.5Z" stroke="#0962E8" stroke-linecap="round" stroke-linejoin="round"/>
<path d="M0.833313 31.6666C0.833313 24.3028 7.54906 18.3333 15.8333 18.3333" stroke="#0962E8" stroke-linecap="round" stroke-linejoin="round"/>
<path d="M24.0417 20.8333C22.2698 20.8333 20.8334 22.5071 20.8334 24.572C20.8334 28.3106 24.625 31.7094 26.6667 32.5C28.7084 31.7094 32.5 28.3106 32.5 24.572C32.5 22.5071 31.0636 20.8333 29.2917 20.8333C28.2066 20.8333 27.2473 21.4611 26.6667 22.4218C26.0861 21.4611 25.1268 20.8333 24.0417 20.8333Z" stroke="#0962E8" stroke-linecap="round" stroke-linejoin="round"/>
</g>
<defs>
<clipPath id="clip0_2402_854">
<rect width="40" height="40.8333" fill="white"/>
</clipPath>
</defs>
</svg>
