<svg width="40" height="38" viewBox="0 0 40 38" fill="none" xmlns="http://www.w3.org/2000/svg">
<g clip-path="url(#clip0_2402_859)">
<path d="M21.2 37.6C31.583 37.6 40 29.183 40 18.8C40 8.41705 31.583 0 21.2 0C10.8171 0 2.40002 8.41705 2.40002 18.8C2.40002 29.183 10.8171 37.6 21.2 37.6Z" fill="#EFF9FF"/>
<path d="M16.8 8.8C19.0092 8.8 20.8 7.00912 20.8 4.8C20.8 2.59087 19.0092 0.800003 16.8 0.800003C14.5909 0.800003 12.8 2.59087 12.8 4.8C12.8 7.00912 14.5909 8.8 16.8 8.8Z" stroke="#0962E8" stroke-linecap="round" stroke-linejoin="round"/>
<path d="M19.2 13.6H14.4C13.657 13.6 13.2856 13.6 12.9727 13.6308C9.93403 13.9301 7.53003 16.3341 7.23075 19.3727C7.19995 19.6856 7.19995 20.057 7.19995 20.8H26.4C26.4 20.057 26.4 19.6856 26.3692 19.3727C26.0699 16.3341 23.6659 13.9301 20.6272 13.6308C20.3144 13.6 19.9429 13.6 19.2 13.6Z" stroke="#0962E8" stroke-linecap="round" stroke-linejoin="round"/>
<path d="M30.4 19.0274C31.9213 20.0067 32.8 21.1626 32.8 22.4004C32.8 25.9351 25.6365 28.8004 16.8 28.8004C7.96343 28.8004 0.799988 25.9351 0.799988 22.4004C0.799988 21.1626 1.6786 20.0067 3.19999 19.0274" stroke="#0962E8" stroke-linecap="round" stroke-linejoin="round"/>
<path d="M12.8 24.8L16.8 28.8L12.8 32.8" stroke="#0962E8" stroke-linecap="round" stroke-linejoin="round"/>
</g>
<defs>
<clipPath id="clip0_2402_859">
<rect width="40" height="37.6" fill="white"/>
</clipPath>
</defs>
</svg>
