<svg width="40" height="40" viewBox="0 0 40 40" fill="none" xmlns="http://www.w3.org/2000/svg">
<g clip-path="url(#clip0_2402_844)">
<path d="M20.4166 40C31.2322 40 40 31.2322 40 20.4167C40 9.60109 31.2322 0.833328 20.4166 0.833328C9.60107 0.833328 0.833313 9.60109 0.833313 20.4167C0.833313 31.2322 9.60107 40 20.4166 40Z" fill="#EFF9FF"/>
<path d="M9.16665 9.16666C13.769 9.16666 17.5 7.30118 17.5 5C17.5 2.69881 13.769 0.833328 9.16665 0.833328C4.56427 0.833328 0.833313 2.69881 0.833313 5C0.833313 7.30118 4.56427 9.16666 9.16665 9.16666Z" stroke="#0962E8" stroke-linecap="round" stroke-linejoin="round"/>
<path d="M0.833313 5C0.833313 5 0.833313 8.53217 0.833313 10.8333C0.833313 13.1345 4.56427 15 9.16665 15C13.769 15 17.5 13.1345 17.5 10.8333C17.5 9.47033 17.5 5 17.5 5" stroke="#0962E8" stroke-linecap="round" stroke-linejoin="round"/>
<path d="M0.833313 10.8333C0.833313 10.8333 0.833313 14.3655 0.833313 16.6667C0.833313 18.9678 4.56427 20.8333 9.16665 20.8333C13.769 20.8333 17.5 18.9678 17.5 16.6667C17.5 15.3037 17.5 10.8333 17.5 10.8333" stroke="#0962E8" stroke-linecap="round" stroke-linejoin="round"/>
<path d="M0.833313 16.6667C0.833313 16.6667 0.833313 20.1988 0.833313 22.5C0.833313 24.8012 4.56427 26.6667 9.16665 26.6667C13.769 26.6667 17.5 24.8012 17.5 22.5C17.5 21.137 17.5 16.6667 17.5 16.6667" stroke="#0962E8" stroke-linecap="round" stroke-linejoin="round"/>
<path d="M0.833313 22.5C0.833313 22.5 0.833313 26.0322 0.833313 28.3333C0.833313 30.6345 4.56427 32.5 9.16665 32.5C13.769 32.5 17.5 30.6345 17.5 28.3333C17.5 26.9703 17.5 22.5 17.5 22.5" stroke="#0962E8" stroke-linecap="round" stroke-linejoin="round"/>
<path d="M25.8333 20.8333C30.4357 20.8333 34.1667 18.9678 34.1667 16.6667C34.1667 14.3655 30.4357 12.5 25.8333 12.5C21.231 12.5 17.5 14.3655 17.5 16.6667C17.5 18.9678 21.231 20.8333 25.8333 20.8333Z" stroke="#0962E8" stroke-linecap="round" stroke-linejoin="round"/>
<path d="M17.5 16.6667C17.5 16.6667 17.5 20.1988 17.5 22.5C17.5 24.8012 21.231 26.6667 25.8333 26.6667C30.4357 26.6667 34.1667 24.8012 34.1667 22.5C34.1667 21.137 34.1667 16.6667 34.1667 16.6667" stroke="#0962E8" stroke-linecap="round" stroke-linejoin="round"/>
<path d="M17.5 22.5C17.5 22.5 17.5 26.0322 17.5 28.3333C17.5 30.6345 21.231 32.5 25.8333 32.5C30.4357 32.5 34.1667 30.6345 34.1667 28.3333C34.1667 26.9703 34.1667 22.5 34.1667 22.5" stroke="#0962E8" stroke-linecap="round" stroke-linejoin="round"/>
</g>
<defs>
<clipPath id="clip0_2402_844">
<rect width="40" height="40" fill="white"/>
</clipPath>
</defs>
</svg>
